inDegrees=yes
name=ik_S46_A10_T02
DataType=double
version=3
OpenSimVersion=4.3-2021-08-27-4bc7ad9
endheader
time	pelvis_tilt	pelvis_list	pelvis_rotation	pelvis_tx	pelvis_ty	pelvis_tz	hip_flexion_r	hip_adduction_r	hip_rotation_r	knee_angle_r	knee_angle_r_beta	ankle_angle_r	subtalar_angle_r	mtp_angle_r	hip_flexion_l	hip_adduction_l	hip_rotation_l	knee_angle_l	knee_angle_l_beta	ankle_angle_l	subtalar_angle_l	mtp_angle_l	lumbar_extension	lumbar_bending	lumbar_rotation	arm_flex_r	arm_add_r	arm_rot_r	elbow_flex_r	pro_sup_r	wrist_flex_r	wrist_dev_r	arm_flex_l	arm_add_l	arm_rot_l	elbow_flex_l	pro_sup_l	wrist_flex_l	wrist_dev_l
9.959999999999877	1.43803226590447	-1.079010317602799	41.11078793775111	0	0.9399999999999999	0	43.69555502922799	-9.997891335894147	-9.980037527783844	52.69226974110123	0.9196535973311964	0	0	0	43.69555502922799	-9.997891335894147	-9.980037527783844	52.69226974110123	0.9196535973311964	0	0	0	0.6187147718684101	-1.589454268968092	-0.133629727029346	85.0308586151114	-10.57169660217106	36.22702550066516	38.18881498915758	10.09318905160402	0	0	97.64710400901397	4.453812083481299	10.2217856509251	27.30984233387831	23.40407248048366	0	0
9.979999999999876	1.41497265500548	-1.106031096989249	41.12995992476272	0	0.9399999999999999	0	43.69638425068451	-9.997895989412861	-9.98006584400923	52.69325801577195	0.9196708459781145	0	0	0	43.69638425068451	-9.997895989412861	-9.98006584400923	52.69325801577195	0.9196708459781145	0	0	0	0.5843405422570167	-1.595180448729405	-0.07295971353783288	85.12864305728245	-10.48550444036964	36.17158475117105	37.27593783304123	9.525689520749573	0	0	97.61561751143616	4.792102872544547	10.06046867451905	26.40098575626169	23.89935219780947	0	0
9.999999999999876	1.355555606792082	-1.189896220868317	41.37084768027437	0	0.9399999999999999	0	43.69684229852819	-9.997898530677052	-9.980081370348977	52.6938092697452	0.9196804671749625	0	0	0	43.69684229852819	-9.997898530677052	-9.980081370348977	52.6938092697452	0.9196804671749625	0	0	0	0.4840449198154596	-1.620080143688972	-0.08877094772701176	85.64228506263771	-10.27528556314857	36.1370925342046	36.06897611471197	9.030341813893958	0	0	97.63405945787758	5.30544853280781	9.930682896763443	25.69367888633177	24.47094666066693	0	0
10.01999999999988	1.323965926146989	-1.21289133270296	41.27743850616539	0	0.9399999999999999	0	43.69724462698242	-9.997900750756937	-9.98009496164889	52.69429547897727	0.9196889531269159	0	0	0	43.69724462698242	-9.997900750756937	-9.98009496164889	52.69429547897727	0.9196889531269159	0	0	0	0.4470808692379237	-1.617103258191515	0.04811410603137722	86.0122570268333	-10.21501264680374	36.239793569038	35.1931080340476	8.578968630841912	0	0	97.61705683582535	5.715046739515461	9.676181952530722	24.87212996848273	25.14941020676868	0	0
10.03999999999987	1.254521427409163	-1.28916991847097	41.1882127496425	0	0.9399999999999999	0	43.6976410277197	-9.997902890728167	-9.980108160904479	52.69478411428654	0.9196974814219041	0	0	0	43.6976410277197	-9.997902890728167	-9.980108160904479	52.69478411428654	0.9196974814219041	0	0	0	0.3462737548467991	-1.629249125250863	0.1464784566530944	86.54084543138184	-10.21657768712801	36.33629973248762	34.34246173221378	8.128115564380161	0	0	97.77991833616569	5.838783546706963	9.71827002833507	24.16710177732034	25.43982801361201	0	0
10.05999999999987	1.193784329311552	-1.368825520139735	41.11308347356437	0	0.9399999999999999	0	43.6980220365716	-9.997905013298885	-9.980121116111807	52.69524001966973	0.9197054384719182	0	0	0	43.6980220365716	-9.997905013298885	-9.980121116111807	52.69524001966973	0.9197054384719182	0	0	0	0.2496244470485188	-1.649454703157978	0.2540592532198089	87.06103807845153	-10.30050621809915	36.5401092623715	33.80459748276533	7.600409268837869	0	0	97.94756476301382	6.228548736816399	9.53122966697563	23.41505821048342	26.00279436827864	0	0
10.07999999999987	1.119469500521517	-1.453442599031028	40.99569397761517	0	0.9399999999999999	0	43.69854756197085	-9.997907949945748	-9.980139023442737	52.69586671611135	0.9197163763882351	0	0	0	43.69854756197085	-9.997907949945748	-9.980139023442737	52.69586671611135	0.9197163763882351	0	0	0	0.1404647455914325	-1.666328857124815	0.368242828701878	87.59870547266362	-10.31707015728073	36.87804632595658	33.42739328765819	6.850607418577734	0	0	98.04654596495648	6.736681312315211	10.30545455686657	22.97315646959463	25.69134093793502	0	0
10.09999999999987	1.035829470542718	-1.573783928684887	40.92107771673113	0	0.9399999999999999	0	43.69892710215605	-9.997910071739778	-9.980151962329176	52.69631873796693	0.9197242656579059	0	0	0	43.69892710215605	-9.997910071739778	-9.980151962329176	52.69631873796693	0.9197242656579059	0	0	0	9.272967614719906e-05	-1.703538690937592	0.4515252111372317	87.91553139955266	-10.35985971981136	36.76274661898756	33.24045378386224	6.535668369213109	0	0	98.07605708311203	7.251571744261294	11.24287323065971	22.76459609969626	25.20499836442945	0	0
10.11999999999987	0.9407268072301472	-1.686889930254717	40.78520071144178	0	0.9399999999999999	0	43.6993145670195	-9.997912212869018	-9.980165071018316	52.69678512654357	0.919732405674162	0	0	0	43.6993145670195	-9.997912212869018	-9.980165071018316	52.69678512654357	0.919732405674162	0	0	0	-0.142963552646757	-1.729890581513224	0.5629415050076155	88.581495716353	-10.31495375281657	37.09929495596185	32.92511795048371	6.053673420937661	0	0	98.27472653355403	7.607570950639146	11.93797176302986	22.77076963644677	24.72393999198919	0	0
10.13999999999987	0.8532335860118316	-1.796565943673454	40.64428962171127	0	0.9399999999999999	0	43.6997459536523	-9.997914602397993	-9.980179691068781	52.69730281762977	0.9197414410881244	0	0	0	43.6997459536523	-9.997914602397993	-9.980179691068781	52.69730281762977	0.9197414410881244	0	0	0	-0.2780595286413217	-1.759345294225143	0.6781054063060032	89.297967663629	-10.25514051797605	37.38038414575309	32.48463867297449	5.544799938287239	0	0	98.5131608646939	7.984272079702473	12.46352964272187	22.56202553156919	24.19919152566919	0	0
10.15999999999987	0.8124633388676541	-1.846498516157083	40.55769991197661	0	0.9399999999999999	0	43.70022098677582	-9.997917245511376	-9.98019584058336	52.69787008221977	0.9197513417229498	0	0	0	43.70022098677582	-9.997917245511376	-9.98019584058336	52.69787008221977	0.9197513417229498	0	0	0	-0.3398747088051725	-1.772687178895103	0.7477910013029851	89.89164479834353	-10.27064164951095	37.63856456163833	32.08769355516418	5.139867037432287	0	0	98.69844101320906	8.232811452911685	12.86877801702953	22.43365433567996	23.86464621092464	0	0
10.17999999999987	0.7382567759786761	-1.984784415315294	40.41639716344574	0	0.9399999999999999	0	43.70064563055858	-9.99791960616632	-9.98021027063829	52.69837723887049	0.9197601932763284	0	0	0	43.70064563055858	-9.99791960616632	-9.98021027063829	52.69837723887049	0.9197601932763284	0	0	0	-0.4839795200254997	-1.832113691417526	0.8529453430311321	90.59080639078948	-10.30595423506815	37.87482699558244	31.88945452613684	4.713934567430472	0	0	98.94349068806629	8.7052484918473	13.36123386904264	22.11210527519816	23.75342876130597	0	0
